<svg width="32" height="32" xmlns="http://www.w3.org/2000/svg">
  <!-- Mac OS 8 스타일 설정 아이콘 -->
  <g>
    <!-- 배경 -->
    <rect x="4" y="4" width="24" height="24" rx="2" ry="2" fill="#CCCCCC" stroke="#000000" stroke-width="1"/>
    
    <!-- 3D 효과 -->
    <path d="M5 5 L27 5 L27 27 L5 27 Z" fill="none" stroke="#FFFFFF" stroke-width="1"/>
    <path d="M27 5 L27 27 L5 27" fill="none" stroke="#888888" stroke-width="1"/>
    
    <!-- 기어 아이콘 -->
    <circle cx="16" cy="16" r="8" fill="#999999" stroke="#000000" stroke-width="1"/>
    <circle cx="16" cy="16" r="3" fill="#FFFFFF" stroke="#000000" stroke-width="1"/>
    
    <!-- 기어 톱니 -->
    <rect x="15" y="6" width="2" height="4" fill="#999999" stroke="#000000" stroke-width="0.5"/>
    <rect x="15" y="22" width="2" height="4" fill="#999999" stroke="#000000" stroke-width="0.5"/>
    <rect x="22" y="15" width="4" height="2" fill="#999999" stroke="#000000" stroke-width="0.5"/>
    <rect x="6" y="15" width="4" height="2" fill="#999999" stroke="#000000" stroke-width="0.5"/>
    
    <!-- 대각선 톱니 -->
    <rect x="20" y="9" width="3" height="2" transform="rotate(45 20 9)" fill="#999999" stroke="#000000" stroke-width="0.5"/>
    <rect x="9" y="20" width="3" height="2" transform="rotate(45 9 20)" fill="#999999" stroke="#000000" stroke-width="0.5"/>
    <rect x="9" y="9" width="3" height="2" transform="rotate(-45 9 9)" fill="#999999" stroke="#000000" stroke-width="0.5"/>
    <rect x="20" y="20" width="3" height="2" transform="rotate(-45 20 20)" fill="#999999" stroke="#000000" stroke-width="0.5"/>
  </g>
</svg> 