<svg width="32" height="32" xmlns="http://www.w3.org/2000/svg">
  <!-- 설정 아이콘 (톱니바퀴) -->
  <g>
    <!-- 톱니바퀴 본체 -->
    <circle cx="16" cy="16" r="6" fill="#808080" stroke="#666666" stroke-width="0.5"/>
    <circle cx="16" cy="16" r="2" fill="#AAAAAA" stroke="#666666" stroke-width="0.5"/>
    
    <!-- 톱니 8개 -->
    <!-- 상단 -->
    <rect x="15" y="6" width="2" height="4" rx="0.5" fill="#808080" stroke="#666666" stroke-width="0.5"/>
    <!-- 하단 -->
    <rect x="15" y="22" width="2" height="4" rx="0.5" fill="#808080" stroke="#666666" stroke-width="0.5"/>
    <!-- 좌측 -->
    <rect x="6" y="15" width="4" height="2" rx="0.5" fill="#808080" stroke="#666666" stroke-width="0.5"/>
    <!-- 우측 -->
    <rect x="22" y="15" width="4" height="2" rx="0.5" fill="#808080" stroke="#666666" stroke-width="0.5"/>
    
    <!-- 대각선 톱니 -->
    <!-- 좌상단 -->
    <rect x="8.5" y="8.5" width="4" height="2" rx="0.5" transform="rotate(-45 8.5 8.5)" fill="#808080" stroke="#666666" stroke-width="0.5"/>
    <!-- 우상단 -->
    <rect x="23.5" y="8.5" width="4" height="2" rx="0.5" transform="rotate(45 23.5 8.5)" fill="#808080" stroke="#666666" stroke-width="0.5"/>
    <!-- 좌하단 -->
    <rect x="8.5" y="23.5" width="4" height="2" rx="0.5" transform="rotate(45 8.5 23.5)" fill="#808080" stroke="#666666" stroke-width="0.5"/>
    <!-- 우하단 -->
    <rect x="23.5" y="23.5" width="4" height="2" rx="0.5" transform="rotate(-45 23.5 23.5)" fill="#808080" stroke="#666666" stroke-width="0.5"/>
  </g>
</svg> 